<svg xmlns="http://www.w3.org/2000/svg" version="1.1" xmlns:xlink="http://www.w3.org/1999/xlink" xmlns:svgjs="http://svgjs.dev/svgjs" width="100%" height="100%" viewBox="0 0 1000 600"><rect width="1000" height="600" x="0" y="0" fill="#1e87f0"/><g><rect width="333.3333333333333" height="333.3333333333333" rx="13.333333333333334" ry="13.333333333333334" y="77.7777739630807" fill="#1e99ff" transform="matrix(2.2499999313354513,0,0,2.2499999313354517,0,-249.99999084472722)" x="55.55555725097656"/><path d="M228.57765687147838 169.44444479297357L247.64395755268393 319.4444461398655L228.37169374683572 319.4444461398655L212.68907297047372 196.77869376340564L172.23203062995265 319.4444461398655L151.66514146920775 319.4444461398655L111.20809912868668 196.77869376340564L95.5254783523247 319.4444461398655L76.25321454647647 319.4444461398655L95.31951522768205 169.44444479297357L120.5352863446468 169.44444479297357L162.05156761190153 290.1976824406088L203.3618857545136 169.44444479297357L228.57765687147838 169.44444479297357ZM279.42112535469323 319.4444461398655L279.42112535469323 169.44444479297357L299.5466649626324 169.44444479297357L299.5466649626324 301.8493106346789L368.19123207567657 301.8493106346789L368.19123207567657 319.4444461398655L279.42112535469323 319.4444461398655Z " fill="#ffffff" transform="matrix(2.2499999313354513,0,0,2.2499999313354517,0,-249.99999084472722)"/><path d="MNaN 244.4444461398655 " fill="#ffffff" transform="matrix(2.2499999313354513,0,0,2.2499999313354517,0,-249.99999084472722)"/></g></svg>